dataset
version=1
nRows=14
nColumns=39
inDegrees=no
endheader
time	sternoclavicular_r2	sternoclavicular_r3	unrotscap_r3	unrotscap_r2	acromioclavicular_r2	acromioclavicular_r3	acromioclavicular_r1	unrothum_r1	unrothum_r3	unrothum_r2	elv_angle	shoulder_elv	shoulder1_r2	shoulder_rot	elbow_flexion	pro_sup	deviation	flexion	cmc_abduction	cmc_flexion	mp_flexion	ip_flexion	mcp2_flexion	mcp2_abduction	pm2_flexion	md2_flexion	mcp3_flexion	mcp3_abduction	pm3_flexion	md3_flexion	mcp4_flexion	mcp4_abduction	pm4_flexion	md4_flexion	mcp5_flexion	mcp5_abduction	pm5_flexion	md5_flexion
0.000000	-0.004167	-0.348892	0.198788	0.137644	0.083120	0.279367	-0.060126	0.051331	0.195083	0.118111	0.167536	0.027437	0.146525	0.146525	1.279824	1.996099	0.000000	0.000000	0.000000	0.000000	0.000000	0.000000	0.000000	0.000000	0.000000	0.000000	0.000000	0.000000	0.000000	0.000000	0.000000	0.000000	0.000000	0.000000	0.000000	0.000000	0.000000	0.000000
0.020202	-0.005805	-0.330463	0.164928	0.124439	0.073580	0.257629	-0.036316	0.018408	0.214898	0.112136	0.160800	0.027437	0.146525	0.146525	1.249465	0.825277	0.000000	0.000000	0.000000	0.000000	0.000000	0.000000	0.000000	0.000000	0.000000	0.000000	0.000000	0.000000	0.000000	0.000000	0.000000	0.000000	0.000000	0.000000	0.000000	0.000000	0.000000	0.000000
0.040404	-0.005124	-0.334703	0.174421	0.125206	0.073749	0.261328	-0.044840	0.023466	0.207450	0.113021	0.160550	0.027437	0.146525	0.146525	1.266633	1.186843	0.000000	0.000000	0.000000	0.000000	0.000000	0.000000	0.000000	0.000000	0.000000	0.000000	0.000000	0.000000	0.000000	0.000000	0.000000	0.000000	0.000000	0.000000	0.000000	0.000000	0.000000	0.000000
0.060606	-0.004996	-0.332900	0.172492	0.120738	0.069802	0.258003	-0.045324	0.013202	0.210357	0.111108	0.157509	0.027437	0.146525	0.146525	1.288018	1.045342	0.000000	0.000000	0.000000	0.000000	0.000000	0.000000	0.000000	0.000000	0.000000	0.000000	0.000000	0.000000	0.000000	0.000000	0.000000	0.000000	0.000000	0.000000	0.000000	0.000000	0.000000	0.000000
0.080808	-0.004377	-0.337487	0.180232	0.120289	0.068342	0.263191	-0.051528	0.013439	0.209909	0.109725	0.156045	0.027437	0.146525	0.146525	1.332422	1.199466	0.000000	0.000000	0.000000	0.000000	0.000000	0.000000	0.000000	0.000000	0.000000	0.000000	0.000000	0.000000	0.000000	0.000000	0.000000	0.000000	0.000000	0.000000	0.000000	0.000000	0.000000	0.000000
0.101010	-0.003744	-0.340275	0.180945	0.120170	0.067371	0.267127	-0.050895	0.014219	0.214421	0.107058	0.154669	0.027437	0.146525	0.146525	1.371934	1.121301	0.000000	0.000000	0.000000	0.000000	0.000000	0.000000	0.000000	0.000000	0.000000	0.000000	0.000000	0.000000	0.000000	0.000000	0.000000	0.000000	0.000000	0.000000	0.000000	0.000000	0.000000	0.000000
0.121212	-0.002445	-0.345631	0.183970	0.124168	0.069726	0.275541	-0.049935	0.024590	0.218312	0.105157	0.155589	0.027437	0.146525	0.146525	1.404357	1.216301	0.000000	0.000000	0.000000	0.000000	0.000000	0.000000	0.000000	0.000000	0.000000	0.000000	0.000000	0.000000	0.000000	0.000000	0.000000	0.000000	0.000000	0.000000	0.000000	0.000000	0.000000	0.000000
0.141414	-0.001356	-0.347856	0.180314	0.128715	0.072756	0.282750	-0.041820	0.033892	0.227993	0.102639	0.157270	0.027437	0.146525	0.146525	1.413786	1.162286	0.000000	0.000000	0.000000	0.000000	0.000000	0.000000	0.000000	0.000000	0.000000	0.000000	0.000000	0.000000	0.000000	0.000000	0.000000	0.000000	0.000000	0.000000	0.000000	0.000000	0.000000	0.000000
0.161616	-0.000379	-0.350568	0.177820	0.136537	0.078200	0.294277	-0.031172	0.049756	0.238683	0.100880	0.161345	0.027437	0.146525	0.146525	1.402057	1.230480	0.000000	0.000000	0.000000	0.000000	0.000000	0.000000	0.000000	0.000000	0.000000	0.000000	0.000000	0.000000	0.000000	0.000000	0.000000	0.000000	0.000000	0.000000	0.000000	0.000000	0.000000	0.000000
0.181818	0.000669	-0.350684	0.170889	0.145110	0.084083	0.306736	-0.013555	0.066436	0.253993	0.099052	0.167025	0.027437	0.146525	0.146525	1.357967	1.190301	0.000000	0.000000	0.000000	0.000000	0.000000	0.000000	0.000000	0.000000	0.000000	0.000000	0.000000	0.000000	0.000000	0.000000	0.000000	0.000000	0.000000	0.000000	0.000000	0.000000	0.000000	0.000000
0.202020	0.002619	-0.351586	0.165909	0.155598	0.091347	0.321917	0.004786	0.086198	0.269705	0.098979	0.175442	0.027437	0.146525	0.146525	1.286848	1.243998	0.000000	0.000000	0.000000	0.000000	0.000000	0.000000	0.000000	0.000000	0.000000	0.000000	0.000000	0.000000	0.000000	0.000000	0.000000	0.000000	0.000000	0.000000	0.000000	0.000000	0.000000	0.000000
0.222222	0.004696	-0.350956	0.159097	0.165303	0.098332	0.334461	0.023991	0.100119	0.287125	0.100726	0.185262	0.027437	0.146525	0.146525	1.195425	1.213279	0.000000	0.000000	0.000000	0.000000	0.000000	0.000000	0.000000	0.000000	0.000000	0.000000	0.000000	0.000000	0.000000	0.000000	0.000000	0.000000	0.000000	0.000000	0.000000	0.000000	0.000000	0.000000
0.242424	0.006284	-0.351397	0.156086	0.174339	0.105011	0.345763	0.038007	0.110560	0.300593	0.104224	0.195165	0.027437	0.146525	0.146525	1.107010	1.257197	0.000000	0.000000	0.000000	0.000000	0.000000	0.000000	0.000000	0.000000	0.000000	0.000000	0.000000	0.000000	0.000000	0.000000	0.000000	0.000000	0.000000	0.000000	0.000000	0.000000	0.000000	0.000000
0.262626	0.007034	-0.351342	0.153780	0.179969	0.109189	0.352702	0.047834	0.114168	0.310149	0.107039	0.201932	0.027437	0.146525	0.146525	1.034164	1.231714	0.000000	0.000000	0.000000	0.000000	0.000000	0.000000	0.000000	0.000000	0.000000	0.000000	0.000000	0.000000	0.000000	0.000000	0.000000	0.000000	0.000000	0.000000	0.000000	0.000000	0.000000	0.000000
